{"title":"OSU_VS_IOWA_20110104","uid":6085321,"size":1478669670,"categoryP":"video","categoryS":"tv_shows","magnet":"?xt=urn:btih:1278bcad8fdce0fa4431447a9f9a0cf22eb64fd6&amp;dn=OSU_VS_IOWA_20110104&amp;tr=udp%3A%2F%2Ftracker.openbittorrent.com%3A80&amp;tr=udp%3A%2F%2Fopen.demonii.com%3A1337&amp;tr=udp%3A%2F%2Ftracker.coppersurfer.tk%3A6969&amp;tr=udp%3A%2F%2Fexodus.desync.com%3A6969","seeders":0,"leechers":0,"uploader":"thetorrentlord","files":6,"time":1294301123,"description":"******************************************************************************************************************\t\n\n\t\t\t\t\t\t\t\t\t\t\t\t\t\t\t\n\n\t\t\t\t\t\t\t\t\t\t\t\t\t\t\t\n\nThis is from a SD broadcast.\t\t\t\t\t\t\t\t\t\t\t\t\n\n\t\t\t\t\t\t\t\t\t\t\t\t\t\t\t\n\n\t\t\t\t\t\t\t\t\t\t\t\t\t\t\t\n\n\t\t\t\t\t\t\t\t\t\t\t\t\t \n\n******************************************************************************************************************\t\n\n\t\t\t\t\t\t\t\t\t\t\t\t\t\t\t\n\n\t\t\t\t\t\t\t\t\t\t\t\t\t\t\t\n\n\t\t\t\t\t\t\t\t\t\t\t\t\t\t\t\n\n\t\t\t\t\t\t\t\t\t\t\t\t\t\t\t\n\n\t\t\t\t\t\t\t\t\t\t\n\nOSU_VS_IOWA_First_Half_20110104.avi\nFormat                           : AVI\nFormat/Info                      : Audio Video Interleave\nFile size                        : 614 MiB\nDuration                         : 1h 15mn\nOverall bit rate                 : 1 142 Kbps\nMovie name                       : OSU_VS_IOWA_First_Half_20110104.mpg\nDirector                         : created.with.SUPER(C).v2010.bld.37\nWriting application              : SUPER(C)   \n\nVideo\nID                               : 0\nFormat                           : MPEG-4 Visual\nFormat profile                   : Simple@L3\nFormat settings, BVOP            : No\nFormat settings, QPel            : No\nFormat settings, GMC             : No warppoints\nFormat settings, Matrix          : Default (H.263)\nCodec ID                         : XVID\nCodec ID/Hint                    : XviD\nDuration                         : 37mn 35s\nBit rate                         : 2 160 Kbps\nWidth                            : 624 pixels\nHeight                           : 352 pixels\nDisplay aspect ratio             : 16:9\nFrame rate                       : 23.976 fps\nColor space                      : YUV\nChroma subsampling               : 4:2:0\nBit depth                        : 8 bits\nScan type                        : Progressive\nBits/(Pixel*Frame)               : 0.410\nStream size                      : 581 MiB (95%)\nWriting library                  : XviD 1.1.2 (UTC 2006-11-01)\n\nAudio\nID                               : 1\nFormat                           : MPEG Audio\nFormat version                   : Version 2\nFormat profile                   : Layer 3\nMode                             : Joint stereo\nMode extension                   : MS Stereo\nCodec ID                         : 55\nCodec ID/Hint                    : MP3\nDuration                         : 1h 15mn\nBit rate mode                    : Constant\nBit rate                         : 112 Kbps\nChannel(s)                       : 2 channels\nSampling rate                    : 22.05 KHz\nStream size                      : 30.1 MiB (5%)\nAlignment                        : Aligned on interleaves\nInterleave, duration             : 26 ms (0.63 video frame)\nInterleave, preload duration     : 26 ms\nWriting lib","torrent":{"xt":"urn:btih:1278bcad8fdce0fa4431447a9f9a0cf22eb64fd6","amp;dn":"OSU_VS_IOWA_20110104","amp;tr":["udp%3A%2F%2Ftracker.openbittorrent.com%3A80","udp%3A%2F%2Fopen.demonii.com%3A1337","udp%3A%2F%2Ftracker.coppersurfer.tk%3A6969","udp%3A%2F%2Fexodus.desync.com%3A6969"],"infoHash":"1278bcad8fdce0fa4431447a9f9a0cf22eb64fd6","infoHashBuffer":{"type":"Buffer","data":[18,120,188,173,143,220,224,250,68,49,68,122,159,154,12,242,46,182,79,214]},"announce":[],"urlList":[]}}